%TF.GenerationSoftware,KiCad,Pcbnew,(5.1.8)-1*%
%TF.CreationDate,2021-09-28T21:47:29+01:00*%
%TF.ProjectId,pixel_pi_hat,70697865-6c5f-4706-995f-6861742e6b69,rev?*%
%TF.SameCoordinates,Original*%
%TF.FileFunction,Legend,Top*%
%TF.FilePolarity,Positive*%
%FSLAX46Y46*%
G04 Gerber Fmt 4.6, Leading zero omitted, Abs format (unit mm)*
G04 Created by KiCad (PCBNEW (5.1.8)-1) date 2021-09-28 21:47:29*
%MOMM*%
%LPD*%
G01*
G04 APERTURE LIST*
%ADD10C,0.300000*%
%ADD11C,0.120000*%
%ADD12C,0.150000*%
G04 APERTURE END LIST*
D10*
X75964285Y-62678571D02*
X75964285Y-61178571D01*
X76535714Y-61178571D01*
X76678571Y-61250000D01*
X76750000Y-61321428D01*
X76821428Y-61464285D01*
X76821428Y-61678571D01*
X76750000Y-61821428D01*
X76678571Y-61892857D01*
X76535714Y-61964285D01*
X75964285Y-61964285D01*
X77464285Y-62678571D02*
X77464285Y-61678571D01*
X77464285Y-61178571D02*
X77392857Y-61250000D01*
X77464285Y-61321428D01*
X77535714Y-61250000D01*
X77464285Y-61178571D01*
X77464285Y-61321428D01*
X78035714Y-62678571D02*
X78821428Y-61678571D01*
X78035714Y-61678571D02*
X78821428Y-62678571D01*
X79964285Y-62607142D02*
X79821428Y-62678571D01*
X79535714Y-62678571D01*
X79392857Y-62607142D01*
X79321428Y-62464285D01*
X79321428Y-61892857D01*
X79392857Y-61750000D01*
X79535714Y-61678571D01*
X79821428Y-61678571D01*
X79964285Y-61750000D01*
X80035714Y-61892857D01*
X80035714Y-62035714D01*
X79321428Y-62178571D01*
X80892857Y-62678571D02*
X80750000Y-62607142D01*
X80678571Y-62464285D01*
X80678571Y-61178571D01*
X82607142Y-62678571D02*
X82607142Y-61178571D01*
X83178571Y-61178571D01*
X83321428Y-61250000D01*
X83392857Y-61321428D01*
X83464285Y-61464285D01*
X83464285Y-61678571D01*
X83392857Y-61821428D01*
X83321428Y-61892857D01*
X83178571Y-61964285D01*
X82607142Y-61964285D01*
X84107142Y-62678571D02*
X84107142Y-61678571D01*
X84107142Y-61178571D02*
X84035714Y-61250000D01*
X84107142Y-61321428D01*
X84178571Y-61250000D01*
X84107142Y-61178571D01*
X84107142Y-61321428D01*
X85964285Y-62678571D02*
X85964285Y-61178571D01*
X85964285Y-61892857D02*
X86821428Y-61892857D01*
X86821428Y-62678571D02*
X86821428Y-61178571D01*
X88178571Y-62678571D02*
X88178571Y-61892857D01*
X88107142Y-61750000D01*
X87964285Y-61678571D01*
X87678571Y-61678571D01*
X87535714Y-61750000D01*
X88178571Y-62607142D02*
X88035714Y-62678571D01*
X87678571Y-62678571D01*
X87535714Y-62607142D01*
X87464285Y-62464285D01*
X87464285Y-62321428D01*
X87535714Y-62178571D01*
X87678571Y-62107142D01*
X88035714Y-62107142D01*
X88178571Y-62035714D01*
X88678571Y-61678571D02*
X89250000Y-61678571D01*
X88892857Y-61178571D02*
X88892857Y-62464285D01*
X88964285Y-62607142D01*
X89107142Y-62678571D01*
X89250000Y-62678571D01*
D11*
%TO.C,U1*%
X87420000Y-51440000D02*
X87420000Y-52690000D01*
X87420000Y-52690000D02*
X105320000Y-52690000D01*
X105320000Y-52690000D02*
X105320000Y-48190000D01*
X105320000Y-48190000D02*
X87420000Y-48190000D01*
X87420000Y-48190000D02*
X87420000Y-49440000D01*
X87420000Y-49440000D02*
G75*
G02*
X87420000Y-51440000I0J-1000000D01*
G01*
%TO.C,J3*%
X107840000Y-41580000D02*
X107840000Y-36380000D01*
X59520000Y-41580000D02*
X107840000Y-41580000D01*
X56920000Y-36380000D02*
X107840000Y-36380000D01*
X59520000Y-41580000D02*
X59520000Y-38980000D01*
X59520000Y-38980000D02*
X56920000Y-38980000D01*
X56920000Y-38980000D02*
X56920000Y-36380000D01*
X58250000Y-41580000D02*
X56920000Y-41580000D01*
X56920000Y-41580000D02*
X56920000Y-40250000D01*
%TO.C,J2*%
X59580000Y-49090000D02*
X56920000Y-49090000D01*
X59580000Y-54230000D02*
X59580000Y-49090000D01*
X56920000Y-54230000D02*
X56920000Y-49090000D01*
X59580000Y-54230000D02*
X56920000Y-54230000D01*
X59580000Y-55500000D02*
X59580000Y-56830000D01*
X59580000Y-56830000D02*
X58250000Y-56830000D01*
%TO.C,J1*%
X70080000Y-51630000D02*
X67420000Y-51630000D01*
X70080000Y-54230000D02*
X70080000Y-51630000D01*
X67420000Y-54230000D02*
X67420000Y-51630000D01*
X70080000Y-54230000D02*
X67420000Y-54230000D01*
X70080000Y-55500000D02*
X70080000Y-56830000D01*
X70080000Y-56830000D02*
X68750000Y-56830000D01*
%TO.C,U1*%
D12*
X85872380Y-51201904D02*
X86681904Y-51201904D01*
X86777142Y-51154285D01*
X86824761Y-51106666D01*
X86872380Y-51011428D01*
X86872380Y-50820952D01*
X86824761Y-50725714D01*
X86777142Y-50678095D01*
X86681904Y-50630476D01*
X85872380Y-50630476D01*
X86872380Y-49630476D02*
X86872380Y-50201904D01*
X86872380Y-49916190D02*
X85872380Y-49916190D01*
X86015238Y-50011428D01*
X86110476Y-50106666D01*
X86158095Y-50201904D01*
%TO.C,J3*%
X55372380Y-39313333D02*
X56086666Y-39313333D01*
X56229523Y-39360952D01*
X56324761Y-39456190D01*
X56372380Y-39599047D01*
X56372380Y-39694285D01*
X55372380Y-38932380D02*
X55372380Y-38313333D01*
X55753333Y-38646666D01*
X55753333Y-38503809D01*
X55800952Y-38408571D01*
X55848571Y-38360952D01*
X55943809Y-38313333D01*
X56181904Y-38313333D01*
X56277142Y-38360952D01*
X56324761Y-38408571D01*
X56372380Y-38503809D01*
X56372380Y-38789523D01*
X56324761Y-38884761D01*
X56277142Y-38932380D01*
%TO.C,J2*%
X57916666Y-57282380D02*
X57916666Y-57996666D01*
X57869047Y-58139523D01*
X57773809Y-58234761D01*
X57630952Y-58282380D01*
X57535714Y-58282380D01*
X58345238Y-57377619D02*
X58392857Y-57330000D01*
X58488095Y-57282380D01*
X58726190Y-57282380D01*
X58821428Y-57330000D01*
X58869047Y-57377619D01*
X58916666Y-57472857D01*
X58916666Y-57568095D01*
X58869047Y-57710952D01*
X58297619Y-58282380D01*
X58916666Y-58282380D01*
%TO.C,J1*%
X68416666Y-57282380D02*
X68416666Y-57996666D01*
X68369047Y-58139523D01*
X68273809Y-58234761D01*
X68130952Y-58282380D01*
X68035714Y-58282380D01*
X69416666Y-58282380D02*
X68845238Y-58282380D01*
X69130952Y-58282380D02*
X69130952Y-57282380D01*
X69035714Y-57425238D01*
X68940476Y-57520476D01*
X68845238Y-57568095D01*
%TD*%
M02*
