M48
INCH,TZ
T1C0.0315
T2C0.0394
T3C0.1063
%
G90
G05
T1
X34941Y-18358
X34941Y-21358
X35941Y-18358
X35941Y-21358
X36941Y-18358
X36941Y-21358
X37941Y-18358
X37941Y-21358
X38941Y-18358
X38941Y-21358
X39941Y-18358
X39941Y-21358
X40941Y-18358
X40941Y-21358
T2
X22933Y-19850
X22933Y-20850
X22933Y-21850
X27067Y-20850
X27067Y-21850
X22933Y-14846
X22933Y-15846
X23933Y-14846
X23933Y-15846
X24933Y-14846
X24933Y-15846
X25933Y-14846
X25933Y-15846
X26933Y-14846
X26933Y-15846
X27933Y-14846
X27933Y-15846
X28933Y-14846
X28933Y-15846
X29933Y-14846
X29933Y-15846
X30933Y-14846
X30933Y-15846
X31933Y-14846
X31933Y-15846
X32933Y-14846
X32933Y-15846
X33933Y-14846
X33933Y-15846
X34933Y-14846
X34933Y-15846
X35933Y-14846
X35933Y-15846
X36933Y-14846
X36933Y-15846
X37933Y-14846
X37933Y-15846
X38933Y-14846
X38933Y-15846
X39933Y-14846
X39933Y-15846
X40933Y-14846
X40933Y-15846
X41933Y-14846
X41933Y-15846
T3
X43898Y-24409
X21063Y-15354
X43898Y-15354
X21063Y-24409
T0
M30
